<svg width="885" height="338" viewBox="0 0 885 338" fill="none" xmlns="http://www.w3.org/2000/svg">
<g filter="url(#filter0_ddiii_157_4)">
<path d="M210.958 286H152.158L73.8578 167.8V286H15.0578V74.5H73.8578L152.158 194.2V74.5H210.958V286ZM234.852 201.7C234.852 184.3 237.952 169.1 244.152 156.1C250.552 143.1 259.152 133.1 269.952 126.1C280.952 119.1 293.152 115.6 306.552 115.6C318.152 115.6 328.152 117.9 336.552 122.5C344.952 127.1 351.452 133.3 356.052 141.1V117.7H414.852V286H356.052V262.6C351.452 270.4 344.852 276.6 336.252 281.2C327.852 285.8 317.952 288.1 306.552 288.1C293.152 288.1 280.952 284.6 269.952 277.6C259.152 270.6 250.552 260.6 244.152 247.6C237.952 234.4 234.852 219.1 234.852 201.7ZM356.052 201.7C356.052 190.9 353.052 182.4 347.052 176.2C341.252 170 334.052 166.9 325.452 166.9C316.652 166.9 309.352 170 303.552 176.2C297.752 182.2 294.852 190.7 294.852 201.7C294.852 212.5 297.752 221.1 303.552 227.5C309.352 233.7 316.652 236.8 325.452 236.8C334.052 236.8 341.252 233.7 347.052 227.5C353.052 221.3 356.052 212.7 356.052 201.7ZM558.459 116.2C577.859 116.2 593.259 122.7 604.659 135.7C616.059 148.5 621.759 165.9 621.759 187.9V286H562.959V195.7C562.959 186.1 560.459 178.6 555.459 173.2C550.459 167.6 543.759 164.8 535.359 164.8C526.559 164.8 519.659 167.6 514.659 173.2C509.659 178.6 507.159 186.1 507.159 195.7V286H448.359V117.7H507.159V141.7C512.359 134.1 519.359 128 528.159 123.4C536.959 118.6 547.059 116.2 558.459 116.2ZM683.723 102.1C673.323 102.1 664.923 99.3 658.523 93.7C652.323 87.9 649.223 80.7 649.223 72.1C649.223 63.3 652.323 56 658.523 50.2C664.923 44.4 673.323 41.5 683.723 41.5C693.923 41.5 702.123 44.4 708.323 50.2C714.723 56 717.923 63.3 717.923 72.1C717.923 80.7 714.723 87.9 708.323 93.7C702.123 99.3 693.923 102.1 683.723 102.1ZM712.823 117.7V286H654.023V117.7H712.823ZM774.808 288.4C764.408 288.4 756.008 285.6 749.608 280C743.408 274.2 740.308 266.9 740.308 258.1C740.308 249.3 743.408 242 749.608 236.2C756.008 230.4 764.408 227.5 774.808 227.5C785.008 227.5 793.208 230.4 799.408 236.2C805.808 242 809.008 249.3 809.008 258.1C809.008 266.7 805.808 273.9 799.408 279.7C793.208 285.5 785.008 288.4 774.808 288.4Z" fill="white"/>
<path d="M210.958 286V291H215.958V286H210.958ZM152.158 286L147.989 288.761L149.472 291H152.158V286ZM73.8578 167.8L78.0262 165.039L68.8578 151.198V167.8H73.8578ZM73.8578 286V291H78.8578V286H73.8578ZM15.0578 286H10.0578V291H15.0578V286ZM15.0578 74.5V69.5H10.0578V74.5H15.0578ZM73.8578 74.5L78.0421 71.7629L76.5619 69.5H73.8578V74.5ZM152.158 194.2L147.974 196.937L157.158 210.977V194.2H152.158ZM152.158 74.5V69.5H147.158V74.5H152.158ZM210.958 74.5H215.958V69.5H210.958V74.5ZM210.958 281H152.158V291H210.958V281ZM156.326 283.239L78.0262 165.039L69.6894 170.561L147.989 288.761L156.326 283.239ZM68.8578 167.8V286H78.8578V167.8H68.8578ZM73.8578 281H15.0578V291H73.8578V281ZM20.0578 286V74.5H10.0578V286H20.0578ZM15.0578 79.5H73.8578V69.5H15.0578V79.5ZM69.6735 77.2371L147.974 196.937L156.342 191.463L78.0421 71.7629L69.6735 77.2371ZM157.158 194.2V74.5H147.158V194.2H157.158ZM152.158 79.5H210.958V69.5H152.158V79.5ZM205.958 74.5V286H215.958V74.5H205.958ZM244.152 156.1L239.666 153.892L239.653 153.92L239.639 153.948L244.152 156.1ZM269.952 126.1L267.268 121.882L267.25 121.893L267.233 121.904L269.952 126.1ZM336.552 122.5L334.151 126.885H334.151L336.552 122.5ZM356.052 141.1L351.746 143.64L361.052 159.421V141.1H356.052ZM356.052 117.7V112.7H351.052V117.7H356.052ZM414.852 117.7H419.852V112.7H414.852V117.7ZM414.852 286V291H419.852V286H414.852ZM356.052 286H351.052V291H356.052V286ZM356.052 262.6H361.052V244.279L351.746 260.06L356.052 262.6ZM336.252 281.2L333.894 276.791L333.872 276.803L333.851 276.815L336.252 281.2ZM269.952 277.6L267.233 281.796L267.25 281.807L267.268 281.818L269.952 277.6ZM244.152 247.6L239.627 249.726L239.646 249.767L239.666 249.808L244.152 247.6ZM347.052 176.2L343.401 179.616L343.43 179.647L343.459 179.677L347.052 176.2ZM303.552 176.2L307.147 179.675L307.176 179.646L307.204 179.616L303.552 176.2ZM303.552 227.5L299.847 230.858L299.874 230.887L299.901 230.916L303.552 227.5ZM347.052 227.5L343.459 224.023L343.43 224.053L343.401 224.084L347.052 227.5ZM239.852 201.7C239.852 184.892 242.846 170.455 248.665 158.252L239.639 153.948C233.059 167.745 229.852 183.708 229.852 201.7H239.852ZM248.638 158.308C254.691 146.014 262.721 136.745 272.672 130.296L267.233 121.904C255.584 129.455 246.414 140.186 239.666 153.892L248.638 158.308ZM272.637 130.318C282.811 123.844 294.075 120.6 306.552 120.6V110.6C292.229 110.6 279.093 114.356 267.268 121.882L272.637 130.318ZM306.552 120.6C317.489 120.6 326.627 122.766 334.151 126.885L338.954 118.115C329.677 113.034 318.816 110.6 306.552 110.6V120.6ZM334.151 126.885C341.808 131.079 347.63 136.661 351.746 143.64L360.359 138.56C355.275 129.939 348.096 123.121 338.954 118.115L334.151 126.885ZM361.052 141.1V117.7H351.052V141.1H361.052ZM356.052 122.7H414.852V112.7H356.052V122.7ZM409.852 117.7V286H419.852V117.7H409.852ZM414.852 281H356.052V291H414.852V281ZM361.052 286V262.6H351.052V286H361.052ZM351.746 260.06C347.647 267.009 341.75 272.589 333.894 276.791L338.611 285.609C347.955 280.611 355.257 273.791 360.359 265.14L351.746 260.06ZM333.851 276.815C326.315 280.941 317.273 283.1 306.552 283.1V293.1C318.632 293.1 329.389 290.659 338.654 285.585L333.851 276.815ZM306.552 283.1C294.075 283.1 282.811 279.856 272.637 273.382L267.268 281.818C279.093 289.344 292.229 293.1 306.552 293.1V283.1ZM272.672 273.404C262.721 266.955 254.691 257.686 248.638 245.392L239.666 249.808C246.414 263.514 255.584 274.245 267.233 281.796L272.672 273.404ZM248.678 245.474C242.845 233.056 239.852 218.505 239.852 201.7H229.852C229.852 219.695 233.06 235.744 239.627 249.726L248.678 245.474ZM361.052 201.7C361.052 189.945 357.761 180.076 350.645 172.723L343.459 179.677C348.343 184.724 351.052 191.855 351.052 201.7H361.052ZM350.704 172.784C343.944 165.559 335.416 161.9 325.452 161.9V171.9C332.689 171.9 338.56 174.441 343.401 179.616L350.704 172.784ZM325.452 161.9C315.325 161.9 306.685 165.533 299.901 172.784L307.204 179.616C312.02 174.467 317.979 171.9 325.452 171.9V161.9ZM299.957 172.725C292.998 179.924 289.852 189.829 289.852 201.7H299.852C299.852 191.571 302.506 184.476 307.147 179.675L299.957 172.725ZM289.852 201.7C289.852 213.418 293.02 223.324 299.847 230.858L307.257 224.142C302.485 218.876 299.852 211.582 299.852 201.7H289.852ZM299.901 230.916C306.685 238.167 315.325 241.8 325.452 241.8V231.8C317.979 231.8 312.02 229.233 307.204 224.084L299.901 230.916ZM325.452 241.8C335.416 241.8 343.944 238.141 350.704 230.916L343.401 224.084C338.56 229.259 332.689 231.8 325.452 231.8V241.8ZM350.645 230.977C357.777 223.607 361.052 213.625 361.052 201.7H351.052C351.052 211.775 348.327 218.993 343.459 224.023L350.645 230.977ZM604.659 135.7L600.899 138.997L600.912 139.011L600.925 139.025L604.659 135.7ZM621.759 286V291H626.759V286H621.759ZM562.959 286H557.959V291H562.959V286ZM555.459 173.2L551.729 176.53L551.759 176.564L551.79 176.597L555.459 173.2ZM514.659 173.2L518.327 176.597L518.358 176.564L518.388 176.53L514.659 173.2ZM507.159 286V291H512.159V286H507.159ZM448.359 286H443.359V291H448.359V286ZM448.359 117.7V112.7H443.359V117.7H448.359ZM507.159 117.7H512.159V112.7H507.159V117.7ZM507.159 141.7H502.159V157.862L511.285 144.523L507.159 141.7ZM528.159 123.4L530.475 127.831L530.514 127.811L530.553 127.789L528.159 123.4ZM558.459 121.2C576.615 121.2 590.571 127.218 600.899 138.997L608.418 132.403C595.946 118.182 579.102 111.2 558.459 111.2V121.2ZM600.925 139.025C611.299 150.674 616.759 166.768 616.759 187.9H626.759C626.759 165.031 620.818 146.326 608.392 132.375L600.925 139.025ZM616.759 187.9V286H626.759V187.9H616.759ZM621.759 281H562.959V291H621.759V281ZM567.959 286V195.7H557.959V286H567.959ZM567.959 195.7C567.959 185.235 565.218 176.381 559.127 169.803L551.79 176.597C555.699 180.819 557.959 186.965 557.959 195.7H567.959ZM559.188 169.87C553.121 163.074 544.994 159.8 535.359 159.8V169.8C542.523 169.8 547.796 172.126 551.729 176.53L559.188 169.87ZM535.359 159.8C525.404 159.8 517.043 163.022 510.929 169.87L518.388 176.53C522.274 172.178 527.714 169.8 535.359 169.8V159.8ZM510.99 169.803C504.899 176.381 502.159 185.235 502.159 195.7H512.159C512.159 186.965 514.418 180.819 518.327 176.597L510.99 169.803ZM502.159 195.7V286H512.159V195.7H502.159ZM507.159 281H448.359V291H507.159V281ZM453.359 286V117.7H443.359V286H453.359ZM448.359 122.7H507.159V112.7H448.359V122.7ZM502.159 117.7V141.7H512.159V117.7H502.159ZM511.285 144.523C515.987 137.652 522.343 132.082 530.475 127.831L525.842 118.969C516.375 123.918 508.73 130.548 503.032 138.877L511.285 144.523ZM530.553 127.789C538.523 123.442 547.779 121.2 558.459 121.2V111.2C546.338 111.2 535.395 113.758 525.764 119.01L530.553 127.789ZM658.523 93.7L655.107 97.3513L655.168 97.4081L655.23 97.4629L658.523 93.7ZM658.523 50.2L655.165 46.4951L655.136 46.5216L655.107 46.5486L658.523 50.2ZM708.323 50.2L704.907 53.8513L704.936 53.8784L704.965 53.9049L708.323 50.2ZM708.323 93.7L711.674 97.4105L711.68 97.4049L708.323 93.7ZM712.823 117.7H717.823V112.7H712.823V117.7ZM712.823 286V291H717.823V286H712.823ZM654.023 286H649.023V291H654.023V286ZM654.023 117.7V112.7H649.023V117.7H654.023ZM683.723 97.1C674.252 97.1 667.112 94.5718 661.815 89.9371L655.23 97.4629C662.733 104.028 672.393 107.1 683.723 107.1V97.1ZM661.938 90.0486C656.764 85.2079 654.223 79.3364 654.223 72.1H644.223C644.223 82.0635 647.881 90.5921 655.107 97.3513L661.938 90.0486ZM654.223 72.1C654.223 64.6269 656.79 58.6676 661.938 53.8514L655.107 46.5486C647.855 53.3323 644.223 61.9731 644.223 72.1H654.223ZM661.88 53.9049C667.18 49.1017 674.297 46.5 683.723 46.5V36.5C672.348 36.5 662.665 39.6983 655.165 46.4951L661.88 53.9049ZM683.723 46.5C692.925 46.5 699.813 49.0866 704.907 53.8513L711.738 46.5486C704.432 39.7134 694.921 36.5 683.723 36.5V46.5ZM704.965 53.9049C710.297 58.7369 712.923 64.6811 712.923 72.1H722.923C722.923 61.9189 719.148 53.263 711.68 46.4951L704.965 53.9049ZM712.923 72.1C712.923 79.2816 710.324 85.1382 704.965 89.9951L711.68 97.4049C719.121 90.6618 722.923 82.1184 722.923 72.1H712.923ZM704.971 89.9895C699.883 94.5855 692.971 97.1 683.723 97.1V107.1C694.874 107.1 704.363 104.014 711.674 97.4105L704.971 89.9895ZM707.823 117.7V286H717.823V117.7H707.823ZM712.823 281H654.023V291H712.823V281ZM659.023 286V117.7H649.023V286H659.023ZM654.023 122.7H712.823V112.7H654.023V122.7ZM749.608 280L746.192 283.651L746.253 283.708L746.315 283.763L749.608 280ZM749.608 236.2L746.25 232.495L746.221 232.522L746.192 232.549L749.608 236.2ZM799.408 236.2L795.992 239.851L796.021 239.878L796.05 239.905L799.408 236.2ZM799.408 279.7L796.05 275.995L796.021 276.022L795.992 276.049L799.408 279.7ZM774.808 283.4C765.337 283.4 758.197 280.872 752.9 276.237L746.315 283.763C753.818 290.328 763.478 293.4 774.808 293.4V283.4ZM753.024 276.349C747.875 271.532 745.308 265.573 745.308 258.1H735.308C735.308 268.227 738.94 276.868 746.192 283.651L753.024 276.349ZM745.308 258.1C745.308 250.627 747.875 244.668 753.024 239.851L746.192 232.549C738.94 239.332 735.308 247.973 735.308 258.1H745.308ZM752.965 239.905C758.266 235.102 765.382 232.5 774.808 232.5V222.5C763.434 222.5 753.75 225.698 746.25 232.495L752.965 239.905ZM774.808 232.5C784.01 232.5 790.899 235.087 795.992 239.851L802.824 232.549C795.517 225.713 786.006 222.5 774.808 222.5V232.5ZM796.05 239.905C801.382 244.737 804.008 250.681 804.008 258.1H814.008C814.008 247.919 810.234 239.263 802.765 232.495L796.05 239.905ZM804.008 258.1C804.008 265.282 801.41 271.138 796.05 275.995L802.765 283.405C810.206 276.662 814.008 268.118 814.008 258.1H804.008ZM795.992 276.049C790.899 280.813 784.01 283.4 774.808 283.4V293.4C786.006 293.4 795.517 290.187 802.824 283.351L795.992 276.049Z" fill="black"/>
</g>
<defs>
<filter id="filter0_ddiii_157_4" x="0.0585938" y="0.499985" width="883.949" height="336.9" filterUnits="userSpaceOnUse" color-interpolation-filters="sRGB">
<feFlood flood-opacity="0" result="BackgroundImageFix"/>
<feColorMatrix in="SourceAlpha" type="matrix" values="0 0 0 0 0 0 0 0 0 0 0 0 0 0 0 0 0 0 127 0" result="hardAlpha"/>
<feOffset dy="4"/>
<feGaussianBlur stdDeviation="2"/>
<feComposite in2="hardAlpha" operator="out"/>
<feColorMatrix type="matrix" values="0 0 0 0 0 0 0 0 0 0 0 0 0 0 0 0 0 0 0.25 0"/>
<feBlend mode="normal" in2="BackgroundImageFix" result="effect1_dropShadow_157_4"/>
<feColorMatrix in="SourceAlpha" type="matrix" values="0 0 0 0 0 0 0 0 0 0 0 0 0 0 0 0 0 0 127 0" result="hardAlpha"/>
<feOffset dx="30" dy="4"/>
<feGaussianBlur stdDeviation="22.5"/>
<feComposite in2="hardAlpha" operator="out"/>
<feColorMatrix type="matrix" values="0 0 0 0 0 0 0 0 0 0 0 0 0 0 0 0 0 0 0.25 0"/>
<feBlend mode="normal" in2="effect1_dropShadow_157_4" result="effect2_dropShadow_157_4"/>
<feBlend mode="normal" in="SourceGraphic" in2="effect2_dropShadow_157_4" result="shape"/>
<feColorMatrix in="SourceAlpha" type="matrix" values="0 0 0 0 0 0 0 0 0 0 0 0 0 0 0 0 0 0 127 0" result="hardAlpha"/>
<feOffset dy="1"/>
<feGaussianBlur stdDeviation="2"/>
<feComposite in2="hardAlpha" operator="arithmetic" k2="-1" k3="1"/>
<feColorMatrix type="matrix" values="0 0 0 0 0 0 0 0 0 0 0 0 0 0 0 0 0 0 0.25 0"/>
<feBlend mode="normal" in2="shape" result="effect3_innerShadow_157_4"/>
<feColorMatrix in="SourceAlpha" type="matrix" values="0 0 0 0 0 0 0 0 0 0 0 0 0 0 0 0 0 0 127 0" result="hardAlpha"/>
<feOffset dx="4"/>
<feGaussianBlur stdDeviation="47"/>
<feComposite in2="hardAlpha" operator="arithmetic" k2="-1" k3="1"/>
<feColorMatrix type="matrix" values="0 0 0 0 0 0 0 0 0 0 0 0 0 0 0 0 0 0 0.25 0"/>
<feBlend mode="normal" in2="effect3_innerShadow_157_4" result="effect4_innerShadow_157_4"/>
<feColorMatrix in="SourceAlpha" type="matrix" values="0 0 0 0 0 0 0 0 0 0 0 0 0 0 0 0 0 0 127 0" result="hardAlpha"/>
<feOffset dx="23" dy="4"/>
<feGaussianBlur stdDeviation="5.5"/>
<feComposite in2="hardAlpha" operator="arithmetic" k2="-1" k3="1"/>
<feColorMatrix type="matrix" values="0 0 0 0 0.670588 0 0 0 0 0.894118 0 0 0 0 0.133333 0 0 0 1 0"/>
<feBlend mode="normal" in2="effect4_innerShadow_157_4" result="effect5_innerShadow_157_4"/>
</filter>
</defs>
</svg>
